<svg xmlns="http://www.w3.org/2000/svg" width="15.004" height="15" viewBox="0 0 15.004 15">
  <defs>
    <style>
      .cls-1 {
        fill: #111;
      }
    </style>
  </defs>
  <g id="Group_127667" data-name="Group 127667" transform="translate(0.001 0.002)">
    <path id="Search" class="cls-1" d="M-16214.707-6426.3l-3.427-3.426a6.2,6.2,0,0,1-3.64,1.174,6.227,6.227,0,0,1-6.228-6.227,6.23,6.23,0,0,1,6.228-6.227,6.23,6.23,0,0,1,6.228,6.227,6.2,6.2,0,0,1-1.174,3.64l3.43,3.427a1.014,1.014,0,0,1,.293.712,1,1,0,0,1-.293.7,1,1,0,0,1-.709.293A.979.979,0,0,1-16214.707-6426.3Zm-11.294-8.479a4.234,4.234,0,0,0,4.228,4.228,4.235,4.235,0,0,0,4.228-4.228,4.231,4.231,0,0,0-4.228-4.223A4.23,4.23,0,0,0-16226-6434.775Z" transform="translate(16228 6441)"/>
  </g>
</svg>
